<svg xmlns="http://www.w3.org/2000/svg" width="44" height="44" viewBox="0 0 44 44"><defs><style>.a{fill:#0081cc;}.b{fill:#fff;}</style></defs><rect class="a" width="44" height="44"/><path class="b" d="M27.871,27.1H24.783V14.781h4.191v5.44h-1.1V18.083H25.887V23.8h1.984V21.637h1.1V27.1Zm-9.525,0V0h5.22V3.338h-4.14V14.712h4.14v3.338h-4.14v5.714h4.14V27.1Zm-2.52,0H12.165V.056h4.682V9.79H15.826V3.338h-2.64V23.822h2.64v-9h1.021V27.1Zm-9.146,0H5.561V21.531H6.68v2.214H9.7V18.051H5.561V.041h5.262V9.69H9.7V3.4H6.68V14.691h4.143V27.1Zm-3.591,0H0V14.781H4.191v5.44h-1.1V18.083H1.1V23.8H3.089V21.637h1.1V27.1Z" transform="translate(7.616 8.705)"/></svg>